<?xml version="1.0" encoding="UTF-8"?>
<svg id="Layer_2" data-name="Layer 2" xmlns="http://www.w3.org/2000/svg" viewBox="0 0 13.07 11.92">
  <defs>
    <style>
      .cls-1 {
        fill: #c12227;
      }
    </style>
  </defs>
  <g id="Layer_1-2" data-name="Layer 1">
    <path class="cls-1" d="m12.06,6.53c-.08,0-.14,0-.21,0-.18,0-.35.01-.49,0-.07,0-.12-.03-.17-.04-.1-.02-.2-.05-.26-.1-.04-.03-.07-.06-.1-.09-.37-.4.17-1.23,1.12-1.97-1.04.24-1.32-.2-.95-1.23-.7.24-.63-1.18-.44-2.07-.41,1.13-1.53,2.24-1.95,1.53-.38.52-.35.95-.42,1.35-.03.18-.09.3-.15.36,0,0-.02,0-.03.02-.02.02-.05.03-.07.04-.02,0-.04,0-.05,0-.15-.01-.26-.24-.16-.51.32-.81-.11-1.55-.29-2.11.06.12-.05.51-.28.71-.16.15-.42.18-.59.06-.32-.23-.12-.75-.56-1.41-.1.44-.55.59-.98.44-.48-.17-.95-.72-1.38-1.52.33.85.46,1.56.28,2.03-.16.42-.56.68-.96.47.22.76.74.95.71,1.34-.01.21-.2.38-.42.41-.31.04-.67-.12-.73-.24.31.5.6,1.31,1.43,1.58.26.09.36.3.3.43-.03.05-.07.09-.15.09,0,0-.01,0-.02,0-.09,0-.2-.03-.35-.11-.35-.2-.66-.51-1.3-.55.28.77-1.29.92-2.42.51.02.01.05.03.07.04h0c.79.44,1.83,1.25,1.22,1.63,1.02.38,1.18.88.33,1.52,1.09-.23,2.04-.16,2.22.29.04.09.04.19.01.3,0,0,0,.02,0,.03-.03.11-.09.24-.19.38,0,.01-.02.02-.03.04-.1.15-.24.3-.42.48,0,0-.02.02-.03.03-.18.18-.41.37-.68.57-.02.01-.03.02-.05.04,1.22-.41,1.52-.16,2.41-.42.49-.14.75-.53,1.1-.52.35,0,.68.36,0,.98.62-.29,1.59-.87,1.84-2.01.41.85.71,1.87.82,2.55,0,0,0,0,0,0,0,0,0,0,0,0,0,0,0,0,.01,0,.03.03.13.03.25,0,.12-.05.2-.12.18-.17-.15-.74-.47-1.62-.96-2.54,1.04.55,2.12.18,2.74-.11-.92.13-.97-.35-.76-.62.22-.28.68-.23,1.1-.51.77-.51.76-.9,1.87-1.58-.39.09-.72.14-1,.17"/>
  </g>
</svg>